<svg width="160" height="320" viewBox="0 0 160 320" fill="none" xmlns="http://www.w3.org/2000/svg">
<rect x="16" y="145.816" width="100" height="100" rx="20" transform="rotate(-2.18706 16 145.816)" fill="#FFD93D"/>
<path d="M142 207C142 242.346 120.689 271 87 271C53.3106 271 26 242.346 26 207C26 171.654 53.3106 143 87 143C120.689 143 142 171.654 142 207Z" fill="#2A4D8F"/>
<circle cx="80" cy="80" r="80" fill="#D7F6FF"/>
<circle cx="79.5" cy="79.5" r="72.5" fill="#A5E2FF"/>
<path d="M137 112C137 139.614 102.5 153 76 150C48.3858 150 21.5 135.5 21.5 109.5C16.5 74 36.0499 35.4975 76 33.5C116 31.5 141.5 77 137 112Z" fill="#FF6B9D"/>
<mask id="mask0_2_195" style="mask-type:alpha" maskUnits="userSpaceOnUse" x="20" y="127" width="116" height="89">
<path d="M20.5195 174.922C21.1659 154.774 47.1966 139.259 78.6607 140.268C110.125 141.278 135.107 158.43 134.461 178.578C133.814 198.726 107.784 214.24 76.3196 213.231C44.8556 212.221 19.873 195.07 20.5195 174.922Z" fill="#D9D9D9"/>
</mask>
<g mask="url(#mask0_2_195)">
<ellipse cx="79.3574" cy="94.7643" rx="61.6461" ry="57.5258" transform="rotate(-178.162 79.3574 94.7643)" fill="#4A71BA"/>
</g>
<mask id="mask1_2_195" style="mask-type:alpha" maskUnits="userSpaceOnUse" x="64" y="108" width="30" height="51">
<rect x="64" y="108" width="30" height="51" fill="#2E3A78"/>
</mask>
<g mask="url(#mask1_2_195)">
<ellipse cx="79.0968" cy="103.038" rx="57.0968" ry="49.0385" fill="#2E3A78"/>
</g>
<path d="M120 98.5402C120 124.796 103.645 145 79.7452 145C55.8457 145 41 124.796 41 98.5402C41 72.2845 55.8457 51 79.7452 51C103.645 51 120 72.2845 120 98.5402Z" fill="#FBD1A2"/>
<path d="M87 125.673C87 128.063 83.4183 130 79 130C74.5817 130 71 128.063 71 125.673C71 119.183 74.5817 121.346 79 121.346C83.4183 121.346 87 123.283 87 125.673Z" fill="#CE7A96"/>
<ellipse cx="103.082" cy="63.0022" rx="26.9355" ry="13.4815" transform="rotate(29.5166 103.082 63.0022)" fill="#FF6B9D"/>
<path d="M58.1026 193.199C47.8123 220.836 55.1992 254 31.5194 254C7.83947 254 11.5126 220.333 17.3702 201.741C27.6605 169.08 36.3522 153.5 47.5 153.5C69.3669 161.037 58.1026 165.448 58.1026 193.199Z" fill="#2A4D8F"/>
<path d="M41 204H81V304H41V204Z" fill="#2A4D8F"/>
<path d="M92 204H132V304H92V204Z" fill="#2A4D8F"/>
<path d="M38.8051 282.995C38.9142 280.758 40.76 279 43 279H59.5H78.5C80.2126 279 81.6558 280.278 81.8632 281.978L84 299.5L84.4884 309.513C84.7668 315.22 80.2145 320 74.5003 320H47.4997C41.7855 320 37.2332 315.22 37.5116 309.513L38.8051 282.995Z" fill="#FFD93D"/>
<path d="M89.8051 282.995C89.9142 280.758 91.76 279 94 279H110.5H129.5C131.213 279 132.656 280.278 132.863 281.978L135 299.5L135.488 309.513C135.767 315.22 131.214 320 125.5 320H98.4997C92.7855 320 88.2332 315.22 88.5116 309.513L89.8051 282.995Z" fill="#FFD93D"/>
<path d="M83.4659 193.809C79.4619 166.487 89.961 160.579 114.258 153.255C117.57 148.783 137.616 168.543 150.5 209C159.258 236.5 139.859 249.723 117.72 243.366C93.0648 236.287 94.9306 219.417 83.4659 193.809Z" fill="#2A4D8F"/>
<path d="M10 233.343C10 230.944 11.9444 229 14.3429 229L33.7644 231.081C40.3451 231.787 44.3271 238.753 41.7259 244.839C40.5574 247.573 40.7137 250.73 42.1742 253.319C45.1683 258.628 42.4914 265.344 36.6668 267.138L32.3988 268.452C29.1716 269.446 25.6858 269.159 22.6638 267.653L20.5495 266.598C14.0852 263.375 10 256.773 10 249.55V233.343Z" fill="#FFD93D"/>
<path d="M154.432 222.337C154.156 220.425 152.382 219.1 150.47 219.376L135 223C133.811 223.297 132.954 224.334 132.886 225.558L132 241.5L131.434 247.44C131.222 249.665 133.275 251.431 135.444 250.889C136.424 250.644 137.463 250.871 138.252 251.502L139.157 252.226C140.885 253.608 143.266 253.838 145.226 252.813L149.616 250.519C154.568 247.929 157.347 242.496 156.547 236.965L154.432 222.337Z" fill="#FFD93D"/>
<path d="M139.5 312.569C139.5 322.786 125.397 318.069 108 318.069C90.6029 318.069 103 320.286 103 310.069C103 299.852 90.6029 294.069 108 294.069C125.397 294.069 139.5 302.352 139.5 312.569Z" fill="#FFD93D"/>
<path d="M87 312.569C87 322.786 72.8969 318.069 55.5 318.069C38.103 318.069 50.5 320.286 50.5 310.069C50.5 299.852 38.103 294.069 55.5 294.069C72.8969 294.069 87 302.352 87 312.569Z" fill="#FFD93D"/>
<rect x="64" y="182" width="53" height="35" rx="15" fill="#FFD93D"/>
<path d="M42.346 189.601C42.4366 189.247 42.7552 189 43.1202 189C43.5918 189 43.9609 189.406 43.9158 189.876L42.5 204.6L41.5 221.5L42.5 238L43.7763 251.614C43.8691 252.604 42.7974 253.278 41.9452 252.767C41.6609 252.597 41.4588 252.317 41.386 251.994L37.3659 234.126C37.1227 233.045 37 231.941 37 230.833V220.2L38.3884 205.761C38.4627 204.988 38.5968 204.222 38.7896 203.471L42.346 189.601Z" fill="#2E3A78"/>
<path d="M45.644 156.069C45.5483 156.023 45.4577 155.967 45.3738 155.902C44.1661 154.963 44.9758 153.03 46.4924 153.232L48.3503 153.48C48.45 153.493 48.5485 153.514 48.645 153.542L63.5549 157.875C64.6657 158.197 65.8101 158.391 66.9653 158.45L84.7341 159.37L91.3724 159.37C92.4543 159.37 93.533 159.253 94.5897 159.02L96.5 158.601L102.099 157.321C103.031 157.107 103.94 156.806 104.815 156.419L108 155.012L111.199 153.937C112.063 153.647 112.891 153.256 113.664 152.772L116.361 151.087C116.452 151.03 116.557 151 116.664 151C116.871 151 117.062 151.113 117.163 151.294L117.838 152.509C118.712 154.081 117.978 156.063 116.291 156.686L98.4832 163.267C97.1676 163.753 95.7902 164.053 94.3915 164.156L84.3017 164.904C83.4355 164.968 82.5654 164.957 81.7012 164.87L73 164L64.7484 163.175C63.5868 163.059 62.4427 162.807 61.3394 162.426L52.5 159.37L45.644 156.069Z" fill="#2E3A78"/>
<path d="M81.5564 270.726C81.3033 270.671 81.1129 270.462 81.0827 270.205C81.0393 269.836 81.3362 269.515 81.7077 269.53L88.283 269.794L94.5202 269.586C95.3275 269.559 96.1313 269.467 96.9237 269.311L103.591 267.995L109.303 266.412C109.972 266.227 110.596 266.827 110.436 267.503C110.367 267.795 110.158 268.035 109.878 268.144L102.539 271.001C101.807 271.286 101.055 271.513 100.288 271.68L97.8779 272.204C96.5628 272.491 95.2151 272.599 93.8712 272.526L89.3622 272.28C88.8589 272.253 88.3585 272.186 87.8656 272.08L81.5564 270.726Z" fill="#2E3A78"/>
<path d="M132.258 248.587C132.193 248.95 131.887 249.221 131.518 249.242C131.051 249.268 130.662 248.888 130.678 248.42L131.201 232.384L131.175 214.103L129.176 196.366L127.06 181.646C126.917 180.649 127.982 179.924 128.857 180.424C129.137 180.584 129.342 180.849 129.425 181.161L134.601 200.495C134.866 201.488 135.029 202.506 135.087 203.532L135.746 215.252L135.23 231.076C135.206 231.797 135.131 232.516 135.004 233.226L132.258 248.587Z" fill="#2E3A78"/>
<ellipse cx="67.5" cy="99.5" rx="5.5" ry="7.5" fill="white"/>
<ellipse cx="97.5" cy="99.5" rx="5.5" ry="7.5" fill="white"/>
<path d="M86.4736 114.977C87.3825 114.508 87.7345 113.388 87.2573 112.484L85.1514 108.492C84.9611 108.131 84.6342 107.862 84.2438 107.744C82.9417 107.351 81.8162 108.732 82.4633 109.928L83.4716 111.792C83.7405 112.29 83.7105 112.895 83.3938 113.363C82.5139 114.664 83.9493 116.28 85.3449 115.56L86.4736 114.977Z" fill="#EBBB86"/>
<path d="M92.4257 85.0311C92.5639 84.4543 93.029 84.0129 93.6123 83.905L95.6782 83.5229C95.9228 83.4777 96.1706 83.4518 96.4193 83.4455L97.0691 83.4291C99.0777 83.3782 101.071 83.7949 102.89 84.6462L103.282 84.8291L105.432 85.835C106.029 86.1143 106.37 86.7544 106.269 87.4059C106.124 88.3419 105.151 88.9038 104.267 88.5615L102.547 87.8944L102.078 87.7821C100.181 87.3273 98.2434 87.0588 96.2937 86.9802L95.6126 86.9528L93.8249 86.8807C92.88 86.8427 92.2053 85.9508 92.4257 85.0311Z" fill="#CE7A96"/>
<path d="M70.2894 85.37C70.1486 84.7752 69.6608 84.3256 69.0565 84.2338L66.714 83.8778C66.4731 83.8412 66.2299 83.8223 65.9862 83.8211L65.2139 83.8173C63.0183 83.8064 60.8452 84.2599 58.8371 85.148L58.3812 85.3496L55.9068 86.4439C55.2991 86.7126 54.9445 87.3528 55.0391 88.0105C55.1735 88.945 56.1357 89.5174 57.021 89.1895L59.1072 88.417L60.1758 88.1641C61.9023 87.7554 63.6616 87.5008 65.433 87.403L66.7362 87.3311L68.914 87.211C69.8458 87.1596 70.5043 86.2781 70.2894 85.37Z" fill="#CE7A96"/>
<ellipse cx="57.0506" cy="63.7718" rx="21.9668" ry="32.3194" transform="rotate(57.9411 57.0506 63.7718)" fill="#FF6B9D"/>
<path d="M56.832 58.96L56.9346 59.0977L57.1016 59.1436L63.5254 60.8789L59.4648 65.7178L59.3418 65.8643L59.3477 66.0547L59.5322 72.2031L53.1553 70.125L53 70.0742L52.8447 70.125L46.4668 72.2031L46.6523 66.0547L46.6582 65.8643L46.5352 65.7178L42.4736 60.8789L48.8984 59.1436L49.0654 59.0977L49.168 58.96L53 53.835L56.832 58.96Z" fill="#FFD93D" stroke="#FFD93D"/>
<ellipse cx="98.5" cy="99.5" rx="3.5" ry="4.5" fill="#1F0505"/>
<ellipse cx="68.5" cy="99.5" rx="3.5" ry="4.5" fill="#1F0505"/>
<circle cx="100" cy="96" r="1" fill="white"/>
<circle cx="70" cy="96" r="1" fill="white"/>
<path d="M67.4004 91C69.1998 91 70.7974 92.1783 71.8008 94H63C64.0034 92.1783 65.601 91 67.4004 91Z" fill="#EBBB86"/>
<path d="M97.4004 91C99.1998 91 100.797 92.1783 101.801 94H93C94.0034 92.1783 95.601 91 97.4004 91Z" fill="#EBBB86"/>
<path d="M80.5461 128.769C80.1122 130.5 78 130 75.5 129.5C73 129 71.1026 127.165 71.2825 126.447C71.4624 125.729 73.682 125.667 76.2401 126.308C78.7981 126.949 80.726 128.051 80.5461 128.769Z" fill="#86475C"/>
</svg>
